<svg width="32" height="32" viewBox="0 0 32 32" fill="none" xmlns="http://www.w3.org/2000/svg">
<path d="M27 18.75V9L19.5 3.75L12 9V11.25H9V7.5L19.5 0L30 7.5V18.75H27V18.75M19.5 3.75V3.75V3.75V3.75V3.75V3.75V3.75V3.75V3.75V3.75M20.25 9.75H21.75V8.25H20.25V9.75V9.75M17.25 9.75H18.75V8.25H17.25V9.75V9.75M20.25 12.75H21.75V11.25H20.25V12.75V12.75M17.25 12.75H18.75V11.25H17.25V12.75V12.75M9 25.5L19.425 28.35L28.35 25.575C28.225 25.35 28.0437 25.1562 27.8062 24.9937C27.5687 24.8312 27.3 24.75 27 24.75H19.425C18.75 24.75 18.2125 24.725 17.8125 24.675C17.4125 24.625 17 24.525 16.575 24.375L13.0875 23.2125L13.9125 20.2875L16.95 21.3C17.375 21.425 17.875 21.525 18.45 21.6C19.025 21.675 19.875 21.725 21 21.75V21.75V21.75V21.75C21 21.475 20.9188 21.2125 20.7563 20.9625C20.5938 20.7125 20.4 20.55 20.175 20.475L11.4 17.25V17.25V17.25H9V25.5V25.5M0 30.75V14.25H11.4C11.575 14.25 11.75 14.2687 11.925 14.3062C12.1 14.3437 12.2625 14.3875 12.4125 14.4375L21.225 17.7C22.05 18 22.7188 18.525 23.2313 19.275C23.7438 20.025 24 20.85 24 21.75H27C28.25 21.75 29.3125 22.1625 30.1875 22.9875C31.0625 23.8125 31.5 24.9 31.5 26.25V27.75L19.5 31.5L9 28.575V28.575V30.75H0V30.75M3 27.75H6V17.25H3V27.75V27.75" fill="#004AC6"/>
</svg>
